<svg xmlns="http://www.w3.org/2000/svg" xmlns:xlink="http://www.w3.org/1999/xlink" width="300" zoomAndPan="magnify" viewBox="0 0 224.87999 74.999997" height="100" preserveAspectRatio="xMidYMid meet" version="1.0"><defs><g/><clipPath id="7f94ccefa8"><path d="M 1 5 L 85.851562 5 L 85.851562 68 L 1 68 Z M 1 5 " clip-rule="nonzero"/></clipPath><clipPath id="dddbb27c52"><path d="M 7 60 L 80 60 L 80 70.828125 L 7 70.828125 Z M 7 60 " clip-rule="nonzero"/></clipPath></defs><g clip-path="url(#7f94ccefa8)"><path fill="#365b6d" d="M 85.238281 17.386719 L 85.238281 64.734375 C 85.238281 66.378906 83.992188 67.714844 82.453125 67.714844 C 80.914062 67.714844 79.664062 66.378906 79.664062 64.734375 L 79.664062 25.925781 C 78.441406 27.691406 77.21875 29.457031 75.992188 31.222656 L 75.992188 62.335938 C 75.992188 64.054688 74.746094 65.445312 73.207031 65.445312 C 71.667969 65.445312 70.417969 64.054688 70.417969 62.335938 L 70.417969 21.878906 C 69.195312 23.722656 67.96875 25.566406 66.742188 27.410156 L 66.742188 59.65625 C 66.742188 61.445312 65.496094 62.898438 63.957031 62.898438 C 62.417969 62.898438 61.167969 61.445312 61.167969 59.65625 L 61.167969 17.472656 C 56.3125 25.085938 51.453125 32.699219 46.59375 40.3125 C 45.488281 42.042969 44.386719 43.773438 43.28125 45.503906 C 42.175781 43.773438 41.074219 42.042969 39.96875 40.3125 C 35.113281 32.703125 30.253906 25.089844 25.394531 17.476562 L 25.394531 59.660156 C 25.394531 61.449219 24.148438 62.902344 22.609375 62.902344 C 21.070312 62.902344 19.824219 61.449219 19.824219 59.660156 L 19.824219 27.414062 C 18.597656 25.566406 17.371094 23.726562 16.148438 21.882812 L 16.148438 62.335938 C 16.148438 64.054688 14.898438 65.445312 13.359375 65.445312 C 11.820312 65.445312 10.574219 64.054688 10.574219 62.335938 L 10.574219 31.226562 C 9.347656 29.460938 8.125 27.695312 6.902344 25.925781 L 6.902344 64.734375 C 6.902344 66.378906 5.652344 67.714844 4.113281 67.714844 C 2.574219 67.714844 1.328125 66.378906 1.328125 64.734375 L 1.328125 17.390625 C 1.328125 16.402344 1.777344 15.53125 2.46875 14.988281 C 2.496094 14.960938 2.527344 14.9375 2.554688 14.917969 C 2.582031 14.898438 2.609375 14.882812 2.636719 14.863281 C 2.875 14.710938 3.664062 14.277344 4.773438 14.660156 C 5.695312 14.980469 6.320312 15.679688 6.597656 16.035156 C 6.648438 16.105469 6.6875 16.160156 6.714844 16.195312 C 7.875 17.851562 9.175781 19.703125 10.574219 21.703125 L 10.574219 12.976562 C 10.574219 11.960938 11.007812 11.058594 11.683594 10.492188 C 11.691406 10.484375 11.699219 10.480469 11.707031 10.476562 C 11.738281 10.449219 11.769531 10.421875 11.800781 10.398438 C 11.804688 10.398438 11.804688 10.394531 11.808594 10.394531 C 11.820312 10.382812 11.835938 10.375 11.851562 10.363281 C 11.851562 10.363281 11.855469 10.359375 11.859375 10.359375 C 11.863281 10.355469 11.871094 10.347656 11.878906 10.34375 C 11.878906 10.34375 11.878906 10.34375 11.882812 10.34375 C 11.890625 10.335938 11.898438 10.332031 11.90625 10.324219 C 11.917969 10.320312 11.925781 10.3125 11.9375 10.308594 C 11.9375 10.304688 11.9375 10.304688 11.9375 10.304688 C 11.976562 10.289062 12.355469 10.070312 12.796875 9.996094 C 12.824219 9.988281 12.851562 9.988281 12.882812 9.984375 C 12.90625 9.980469 12.929688 9.980469 12.953125 9.976562 C 12.976562 9.976562 13 9.972656 13.023438 9.972656 C 13.109375 9.96875 13.203125 9.96875 13.296875 9.976562 C 13.328125 9.980469 13.355469 9.980469 13.386719 9.984375 C 13.414062 9.988281 13.441406 9.988281 13.464844 9.996094 C 13.519531 10 13.570312 10.011719 13.625 10.023438 C 13.960938 10.09375 14.207031 10.222656 14.375 10.308594 C 14.75 10.507812 14.996094 10.730469 15.246094 10.953125 C 15.507812 11.1875 15.707031 11.410156 15.847656 11.574219 C 15.902344 11.644531 15.941406 11.703125 15.96875 11.742188 C 17.128906 13.464844 18.425781 15.398438 19.824219 17.480469 L 19.824219 8.203125 C 19.824219 7.148438 20.257812 6.210938 20.933594 5.617188 C 20.953125 5.597656 20.976562 5.578125 20.996094 5.5625 C 21.035156 5.527344 21.074219 5.496094 21.117188 5.46875 C 21.125 5.460938 21.136719 5.453125 21.148438 5.445312 C 21.15625 5.441406 21.167969 5.433594 21.179688 5.425781 C 21.179688 5.421875 21.183594 5.421875 21.1875 5.417969 C 21.195312 5.414062 21.203125 5.410156 21.214844 5.402344 C 21.242188 5.382812 21.273438 5.363281 21.3125 5.34375 C 21.3125 5.34375 21.316406 5.34375 21.316406 5.339844 C 21.332031 5.332031 21.347656 5.324219 21.367188 5.316406 C 21.371094 5.3125 21.375 5.308594 21.378906 5.308594 C 21.394531 5.300781 21.410156 5.292969 21.425781 5.285156 C 21.457031 5.269531 21.488281 5.257812 21.523438 5.242188 C 21.582031 5.214844 21.648438 5.191406 21.714844 5.167969 C 21.738281 5.164062 21.761719 5.15625 21.785156 5.148438 C 21.789062 5.148438 21.792969 5.148438 21.796875 5.144531 C 21.824219 5.136719 21.851562 5.132812 21.882812 5.125 C 21.917969 5.117188 21.953125 5.109375 21.992188 5.101562 C 22.019531 5.097656 22.046875 5.09375 22.074219 5.089844 C 22.097656 5.085938 22.121094 5.082031 22.148438 5.078125 C 22.160156 5.078125 22.171875 5.074219 22.1875 5.074219 C 22.21875 5.070312 22.25 5.070312 22.28125 5.070312 C 22.316406 5.066406 22.351562 5.066406 22.386719 5.066406 C 22.652344 5.066406 22.945312 5.113281 23.265625 5.230469 C 24.195312 5.578125 24.820312 6.347656 25.089844 6.726562 C 25.089844 6.730469 25.09375 6.730469 25.09375 6.730469 C 25.140625 6.796875 25.175781 6.851562 25.199219 6.890625 C 29.886719 14.136719 36.855469 25.003906 43.28125 35.101562 C 49.710938 25 56.675781 14.132812 61.367188 6.886719 C 61.390625 6.847656 61.425781 6.792969 61.472656 6.726562 C 61.472656 6.726562 61.472656 6.726562 61.472656 6.722656 C 61.746094 6.34375 62.371094 5.574219 63.296875 5.226562 C 63.621094 5.105469 63.914062 5.0625 64.175781 5.0625 C 64.214844 5.0625 64.25 5.0625 64.285156 5.066406 C 64.316406 5.066406 64.347656 5.070312 64.378906 5.070312 C 64.390625 5.070312 64.40625 5.074219 64.417969 5.074219 C 64.441406 5.078125 64.46875 5.082031 64.492188 5.082031 C 64.519531 5.089844 64.546875 5.09375 64.574219 5.097656 C 64.613281 5.105469 64.648438 5.113281 64.683594 5.121094 C 64.710938 5.128906 64.742188 5.132812 64.765625 5.140625 C 64.773438 5.144531 64.777344 5.144531 64.78125 5.144531 C 64.804688 5.152344 64.828125 5.160156 64.847656 5.164062 C 64.917969 5.1875 64.984375 5.210938 65.042969 5.238281 C 65.078125 5.25 65.109375 5.265625 65.140625 5.28125 C 65.15625 5.289062 65.171875 5.296875 65.1875 5.304688 C 65.191406 5.304688 65.195312 5.308594 65.199219 5.3125 C 65.214844 5.320312 65.234375 5.328125 65.25 5.335938 C 65.25 5.339844 65.253906 5.339844 65.253906 5.339844 C 65.289062 5.359375 65.324219 5.378906 65.351562 5.398438 C 65.359375 5.40625 65.371094 5.410156 65.378906 5.414062 C 65.382812 5.417969 65.382812 5.417969 65.386719 5.421875 L 65.417969 5.441406 C 65.429688 5.449219 65.441406 5.457031 65.449219 5.464844 C 65.492188 5.492188 65.53125 5.523438 65.570312 5.558594 C 65.589844 5.574219 65.613281 5.59375 65.632812 5.613281 C 66.308594 6.207031 66.742188 7.144531 66.742188 8.199219 L 66.742188 17.480469 C 68.140625 15.398438 69.4375 13.460938 70.597656 11.738281 C 70.625 11.699219 70.664062 11.640625 70.71875 11.570312 C 70.859375 11.40625 71.058594 11.183594 71.320312 10.949219 C 71.566406 10.726562 71.816406 10.503906 72.191406 10.304688 C 72.355469 10.21875 72.605469 10.089844 72.941406 10.015625 C 72.996094 10.003906 73.046875 9.996094 73.101562 9.988281 C 73.125 9.984375 73.152344 9.980469 73.179688 9.980469 C 73.210938 9.976562 73.238281 9.972656 73.265625 9.972656 C 73.363281 9.964844 73.453125 9.964844 73.542969 9.96875 C 73.566406 9.96875 73.589844 9.972656 73.613281 9.972656 C 73.636719 9.972656 73.660156 9.976562 73.683594 9.980469 C 73.714844 9.980469 73.742188 9.984375 73.769531 9.992188 C 74.210938 10.066406 74.59375 10.289062 74.628906 10.300781 C 74.640625 10.308594 74.648438 10.316406 74.660156 10.320312 C 74.667969 10.324219 74.675781 10.332031 74.683594 10.339844 C 74.683594 10.339844 74.6875 10.339844 74.6875 10.339844 C 74.695312 10.34375 74.699219 10.347656 74.707031 10.355469 C 74.710938 10.355469 74.714844 10.355469 74.714844 10.359375 C 74.730469 10.371094 74.742188 10.378906 74.757812 10.390625 C 74.757812 10.390625 74.761719 10.394531 74.765625 10.394531 C 74.796875 10.417969 74.828125 10.445312 74.859375 10.46875 C 74.867188 10.476562 74.875 10.480469 74.882812 10.488281 C 75.554688 11.054688 75.992188 11.957031 75.992188 12.972656 L 75.992188 21.699219 C 77.390625 19.703125 78.691406 17.847656 79.851562 16.195312 C 79.878906 16.15625 79.917969 16.101562 79.96875 16.035156 C 80.246094 15.675781 80.871094 14.976562 81.789062 14.65625 C 82.902344 14.273438 83.691406 14.707031 83.929688 14.859375 C 83.957031 14.878906 83.984375 14.894531 84.011719 14.914062 C 84.039062 14.933594 84.066406 14.957031 84.097656 14.980469 C 84.789062 15.523438 85.238281 16.398438 85.238281 17.386719 Z M 85.238281 17.386719 " fill-opacity="1" fill-rule="nonzero"/></g><g clip-path="url(#dddbb27c52)"><path fill="#365b6d" d="M 43.128906 60.824219 L 7.742188 68.664062 C 6.90625 68.851562 7.039062 70.085938 7.898438 70.085938 L 78.667969 70.085938 C 79.527344 70.085938 79.660156 68.851562 78.824219 68.664062 L 43.4375 60.824219 C 43.335938 60.800781 43.230469 60.800781 43.128906 60.824219 Z M 43.128906 60.824219 " fill-opacity="1" fill-rule="nonzero"/></g><path stroke-linecap="round" transform="matrix(-0.000000000000000321, -0.530827, 0.529954, -0.000000000000000321, 98.22693, 72.683998)" fill="none" stroke-linejoin="miter" d="M 1.001558 1.001751 L 131.782054 1.001751 " stroke="#365b6d" stroke-width="2" stroke-opacity="1" stroke-miterlimit="4"/><g fill="#365b6d" fill-opacity="1"><g transform="translate(111.589407, 22.652882)"><g><path d="M 11.828125 0 L 11.8125 -8 L 7.84375 -1.328125 L 7.125 -1.328125 L 3.15625 -7.953125 L 3.15625 0 L 1.640625 0 L 1.640625 -10.984375 L 2.9375 -10.984375 L 7.515625 -3.265625 L 12.03125 -10.984375 L 13.3125 -10.984375 L 13.328125 0 Z M 11.828125 0 "/></g></g></g><g fill="#365b6d" fill-opacity="1"><g transform="translate(127.280539, 22.652882)"><g><path d="M 8.640625 -2.75 L 2.8125 -2.75 L 1.59375 0 L -0.015625 0 L 4.953125 -10.984375 L 6.515625 -10.984375 L 11.5 0 L 9.859375 0 Z M 8.09375 -4 L 5.71875 -9.375 L 3.359375 -4 Z M 8.09375 -4 "/></g></g></g><g fill="#365b6d" fill-opacity="1"><g transform="translate(139.47612, 22.652882)"><g><path d="M 8.984375 0 L 6.625 -3.375 C 6.332031 -3.351562 6.101562 -3.34375 5.9375 -3.34375 L 3.21875 -3.34375 L 3.21875 0 L 1.640625 0 L 1.640625 -10.984375 L 5.9375 -10.984375 C 7.351562 -10.984375 8.46875 -10.640625 9.28125 -9.953125 C 10.101562 -9.273438 10.515625 -8.34375 10.515625 -7.15625 C 10.515625 -6.300781 10.300781 -5.578125 9.875 -4.984375 C 9.457031 -4.390625 8.863281 -3.957031 8.09375 -3.6875 L 10.703125 0 Z M 5.875 -4.671875 C 6.875 -4.671875 7.632812 -4.882812 8.15625 -5.3125 C 8.675781 -5.75 8.9375 -6.363281 8.9375 -7.15625 C 8.9375 -7.945312 8.675781 -8.550781 8.15625 -8.96875 C 7.632812 -9.394531 6.875 -9.609375 5.875 -9.609375 L 3.21875 -9.609375 L 3.21875 -4.671875 Z M 5.875 -4.671875 "/></g></g></g><g fill="#365b6d" fill-opacity="1"><g transform="translate(151.593328, 22.652882)"><g><path d="M 3.0625 0.125 C 2.40625 0.125 1.789062 -0.0078125 1.21875 -0.28125 C 0.65625 -0.5625 0.203125 -0.953125 -0.140625 -1.453125 L 0.765625 -2.53125 C 1.367188 -1.65625 2.132812 -1.21875 3.0625 -1.21875 C 3.675781 -1.21875 4.140625 -1.40625 4.453125 -1.78125 C 4.773438 -2.164062 4.9375 -2.722656 4.9375 -3.453125 L 4.9375 -9.609375 L 0.96875 -9.609375 L 0.96875 -10.984375 L 6.5 -10.984375 L 6.5 -3.53125 C 6.5 -2.3125 6.207031 -1.394531 5.625 -0.78125 C 5.039062 -0.175781 4.1875 0.125 3.0625 0.125 Z M 3.0625 0.125 "/></g></g></g><g fill="#365b6d" fill-opacity="1"><g transform="translate(160.35606, 22.652882)"><g><path d="M 9.609375 -1.359375 L 9.609375 0 L 1.640625 0 L 1.640625 -10.984375 L 9.390625 -10.984375 L 9.390625 -9.609375 L 3.21875 -9.609375 L 3.21875 -6.25 L 8.71875 -6.25 L 8.71875 -4.90625 L 3.21875 -4.90625 L 3.21875 -1.359375 Z M 9.609375 -1.359375 "/></g></g></g><g fill="#365b6d" fill-opacity="1"><g transform="translate(171.579785, 22.652882)"><g><path d="M 1.640625 -10.984375 L 3.21875 -10.984375 L 3.21875 -1.359375 L 9.15625 -1.359375 L 9.15625 0 L 1.640625 0 Z M 1.640625 -10.984375 "/></g></g></g><g fill="#365b6d" fill-opacity="1"><g transform="translate(181.612209, 22.652882)"><g><path d="M 1.640625 -10.984375 L 3.21875 -10.984375 L 3.21875 -1.359375 L 9.15625 -1.359375 L 9.15625 0 L 1.640625 0 Z M 1.640625 -10.984375 "/></g></g></g><g fill="#365b6d" fill-opacity="1"><g transform="translate(191.644628, 22.652882)"><g><path d="M 8.640625 -2.75 L 2.8125 -2.75 L 1.59375 0 L -0.015625 0 L 4.953125 -10.984375 L 6.515625 -10.984375 L 11.5 0 L 9.859375 0 Z M 8.09375 -4 L 5.71875 -9.375 L 3.359375 -4 Z M 8.09375 -4 "/></g></g></g><g fill="#365b6d" fill-opacity="1"><g transform="translate(111.589407, 44.381009)"><g><path d="M 11.828125 0 L 11.8125 -8 L 7.84375 -1.328125 L 7.125 -1.328125 L 3.15625 -7.953125 L 3.15625 0 L 1.640625 0 L 1.640625 -10.984375 L 2.9375 -10.984375 L 7.515625 -3.265625 L 12.03125 -10.984375 L 13.3125 -10.984375 L 13.328125 0 Z M 11.828125 0 "/></g></g></g><g fill="#365b6d" fill-opacity="1"><g transform="translate(127.280539, 44.381009)"><g><path d="M 8.640625 -2.75 L 2.8125 -2.75 L 1.59375 0 L -0.015625 0 L 4.953125 -10.984375 L 6.515625 -10.984375 L 11.5 0 L 9.859375 0 Z M 8.09375 -4 L 5.71875 -9.375 L 3.359375 -4 Z M 8.09375 -4 "/></g></g></g><g fill="#365b6d" fill-opacity="1"><g transform="translate(139.47612, 44.381009)"><g><path d="M 8.984375 0 L 6.625 -3.375 C 6.332031 -3.351562 6.101562 -3.34375 5.9375 -3.34375 L 3.21875 -3.34375 L 3.21875 0 L 1.640625 0 L 1.640625 -10.984375 L 5.9375 -10.984375 C 7.351562 -10.984375 8.46875 -10.640625 9.28125 -9.953125 C 10.101562 -9.273438 10.515625 -8.34375 10.515625 -7.15625 C 10.515625 -6.300781 10.300781 -5.578125 9.875 -4.984375 C 9.457031 -4.390625 8.863281 -3.957031 8.09375 -3.6875 L 10.703125 0 Z M 5.875 -4.671875 C 6.875 -4.671875 7.632812 -4.882812 8.15625 -5.3125 C 8.675781 -5.75 8.9375 -6.363281 8.9375 -7.15625 C 8.9375 -7.945312 8.675781 -8.550781 8.15625 -8.96875 C 7.632812 -9.394531 6.875 -9.609375 5.875 -9.609375 L 3.21875 -9.609375 L 3.21875 -4.671875 Z M 5.875 -4.671875 "/></g></g></g><g fill="#365b6d" fill-opacity="1"><g transform="translate(151.593328, 44.381009)"><g><path d="M 5.21875 -4.875 L 3.21875 -2.84375 L 3.21875 0 L 1.640625 0 L 1.640625 -10.984375 L 3.21875 -10.984375 L 3.21875 -4.84375 L 9.171875 -10.984375 L 10.96875 -10.984375 L 6.28125 -6.046875 L 11.265625 0 L 9.421875 0 Z M 5.21875 -4.875 "/></g></g></g><g fill="#365b6d" fill-opacity="1"><g transform="translate(163.585138, 44.381009)"><g><path d="M 9.609375 -1.359375 L 9.609375 0 L 1.640625 0 L 1.640625 -10.984375 L 9.390625 -10.984375 L 9.390625 -9.609375 L 3.21875 -9.609375 L 3.21875 -6.25 L 8.71875 -6.25 L 8.71875 -4.90625 L 3.21875 -4.90625 L 3.21875 -1.359375 Z M 9.609375 -1.359375 "/></g></g></g><g fill="#365b6d" fill-opacity="1"><g transform="translate(174.808863, 44.381009)"><g><path d="M 3.828125 -9.609375 L 0.0625 -9.609375 L 0.0625 -10.984375 L 9.140625 -10.984375 L 9.140625 -9.609375 L 5.375 -9.609375 L 5.375 0 L 3.828125 0 Z M 3.828125 -9.609375 "/></g></g></g><g fill="#365b6d" fill-opacity="1"><g transform="translate(184.731561, 44.381009)"><g><path d="M 1.640625 -10.984375 L 3.21875 -10.984375 L 3.21875 0 L 1.640625 0 Z M 1.640625 -10.984375 "/></g></g></g><g fill="#365b6d" fill-opacity="1"><g transform="translate(190.312254, 44.381009)"><g><path d="M 11.09375 -10.984375 L 11.09375 0 L 9.796875 0 L 3.21875 -8.1875 L 3.21875 0 L 1.640625 0 L 1.640625 -10.984375 L 2.9375 -10.984375 L 9.515625 -2.796875 L 9.515625 -10.984375 Z M 11.09375 -10.984375 "/></g></g></g><g fill="#365b6d" fill-opacity="1"><g transform="translate(203.761843, 44.381009)"><g><path d="M 9.25 -5.546875 L 10.765625 -5.546875 L 10.765625 -1.265625 C 10.222656 -0.816406 9.585938 -0.472656 8.859375 -0.234375 C 8.140625 0.00390625 7.390625 0.125 6.609375 0.125 C 5.492188 0.125 4.492188 -0.113281 3.609375 -0.59375 C 2.722656 -1.082031 2.023438 -1.753906 1.515625 -2.609375 C 1.003906 -3.460938 0.75 -4.421875 0.75 -5.484375 C 0.75 -6.554688 1.003906 -7.519531 1.515625 -8.375 C 2.023438 -9.226562 2.722656 -9.894531 3.609375 -10.375 C 4.503906 -10.863281 5.515625 -11.109375 6.640625 -11.109375 C 7.515625 -11.109375 8.3125 -10.960938 9.03125 -10.671875 C 9.75 -10.390625 10.359375 -9.96875 10.859375 -9.40625 L 9.890625 -8.4375 C 9.003906 -9.28125 7.941406 -9.703125 6.703125 -9.703125 C 5.859375 -9.703125 5.101562 -9.519531 4.4375 -9.15625 C 3.78125 -8.800781 3.265625 -8.300781 2.890625 -7.65625 C 2.515625 -7.019531 2.328125 -6.296875 2.328125 -5.484375 C 2.328125 -4.691406 2.515625 -3.972656 2.890625 -3.328125 C 3.265625 -2.691406 3.78125 -2.1875 4.4375 -1.8125 C 5.101562 -1.445312 5.851562 -1.265625 6.6875 -1.265625 C 7.664062 -1.265625 8.519531 -1.503906 9.25 -1.984375 Z M 9.25 -5.546875 "/></g></g></g><g fill="#365b6d" fill-opacity="1"><g transform="translate(111.589407, 66.109136)"><g><path d="M 11.828125 0 L 11.8125 -8 L 7.84375 -1.328125 L 7.125 -1.328125 L 3.15625 -7.953125 L 3.15625 0 L 1.640625 0 L 1.640625 -10.984375 L 2.9375 -10.984375 L 7.515625 -3.265625 L 12.03125 -10.984375 L 13.3125 -10.984375 L 13.328125 0 Z M 11.828125 0 "/></g></g></g><g fill="#365b6d" fill-opacity="1"><g transform="translate(127.280539, 66.109136)"><g><path d="M 9.609375 -1.359375 L 9.609375 0 L 1.640625 0 L 1.640625 -10.984375 L 9.390625 -10.984375 L 9.390625 -9.609375 L 3.21875 -9.609375 L 3.21875 -6.25 L 8.71875 -6.25 L 8.71875 -4.90625 L 3.21875 -4.90625 L 3.21875 -1.359375 Z M 9.609375 -1.359375 "/></g></g></g><g fill="#365b6d" fill-opacity="1"><g transform="translate(138.504265, 66.109136)"><g><path d="M 1.640625 -10.984375 L 6.28125 -10.984375 C 7.4375 -10.984375 8.460938 -10.75 9.359375 -10.28125 C 10.265625 -9.820312 10.960938 -9.175781 11.453125 -8.34375 C 11.953125 -7.519531 12.203125 -6.566406 12.203125 -5.484375 C 12.203125 -4.410156 11.953125 -3.457031 11.453125 -2.625 C 10.960938 -1.789062 10.265625 -1.144531 9.359375 -0.6875 C 8.460938 -0.226562 7.4375 0 6.28125 0 L 1.640625 0 Z M 6.1875 -1.359375 C 7.070312 -1.359375 7.847656 -1.53125 8.515625 -1.875 C 9.191406 -2.226562 9.710938 -2.710938 10.078125 -3.328125 C 10.453125 -3.953125 10.640625 -4.671875 10.640625 -5.484375 C 10.640625 -6.304688 10.453125 -7.023438 10.078125 -7.640625 C 9.710938 -8.265625 9.191406 -8.75 8.515625 -9.09375 C 7.847656 -9.4375 7.070312 -9.609375 6.1875 -9.609375 L 3.21875 -9.609375 L 3.21875 -1.359375 Z M 6.1875 -1.359375 "/></g></g></g><g fill="#365b6d" fill-opacity="1"><g transform="translate(152.173305, 66.109136)"><g><path d="M 1.640625 -10.984375 L 3.21875 -10.984375 L 3.21875 0 L 1.640625 0 Z M 1.640625 -10.984375 "/></g></g></g><g fill="#365b6d" fill-opacity="1"><g transform="translate(157.753999, 66.109136)"><g><path d="M 8.640625 -2.75 L 2.8125 -2.75 L 1.59375 0 L -0.015625 0 L 4.953125 -10.984375 L 6.515625 -10.984375 L 11.5 0 L 9.859375 0 Z M 8.09375 -4 L 5.71875 -9.375 L 3.359375 -4 Z M 8.09375 -4 "/></g></g></g></svg>